<svg width="143" height="143" viewBox="0 0 143 143" fill="none" xmlns="http://www.w3.org/2000/svg">
<path d="M106.375 73.375V68.5938L112.375 63.3438C113.481 62.3689 114.207 61.0345 114.424 59.5763C114.641 58.118 114.336 56.63 113.562 55.375L106.187 42.875C105.639 41.9258 104.851 41.1374 103.903 40.5889C102.954 40.0405 101.877 39.7511 100.781 39.75C100.102 39.7448 99.4264 39.8504 98.7812 40.0625L91.1874 42.625C89.8781 41.7509 88.5103 40.9678 87.0937 40.2813L85.4999 32.4063C85.2142 30.9675 84.4315 29.6751 83.2889 28.7553C82.1462 27.8355 80.7165 27.3469 79.2499 27.375H64.6249C63.1584 27.3469 61.7286 27.8355 60.586 28.7553C59.4434 29.6751 58.6607 30.9675 58.3749 32.4063L56.7812 40.2813C55.3561 40.9708 53.9781 41.7537 52.6562 42.625L45.2187 39.9375C44.5665 39.7676 43.8911 39.7043 43.2187 39.75C42.1227 39.7511 41.0462 40.0405 40.0973 40.5889C39.1484 41.1374 38.3604 41.9258 37.8124 42.875L30.4374 55.375C29.708 56.6281 29.437 58.0958 29.6707 59.5268C29.9045 60.9577 30.6284 62.2629 31.7187 63.2188L37.6249 68.625V73.4063L31.7187 78.6563C30.5976 79.6188 29.8539 80.9473 29.6193 82.4061C29.3848 83.8649 29.6746 85.3596 30.4374 86.625L37.8124 99.125C38.3604 100.074 39.1484 100.863 40.0973 101.411C41.0462 101.96 42.1227 102.249 43.2187 102.25C43.8979 102.255 44.5734 102.15 45.2187 101.938L52.8124 99.375C54.1217 100.249 55.4895 101.032 56.9062 101.719L58.4999 109.594C58.7857 111.032 59.5684 112.325 60.711 113.245C61.8536 114.164 63.2834 114.653 64.7499 114.625H79.4999C80.9665 114.653 82.3962 114.164 83.5389 113.245C84.6815 112.325 85.4642 111.032 85.7499 109.594L87.3437 101.719C88.7688 101.029 90.1468 100.246 91.4687 99.375L99.0312 101.938C99.6764 102.15 100.352 102.255 101.031 102.25C102.127 102.249 103.204 101.96 104.153 101.411C105.101 100.863 105.889 100.074 106.437 99.125L113.562 86.625C114.292 85.3719 114.563 83.9042 114.329 82.4732C114.095 81.0423 113.371 79.7371 112.281 78.7813L106.375 73.375ZM100.781 96L90.0624 92.375C87.5517 94.4982 84.6844 96.1593 81.5937 97.2813L79.3749 108.5H64.6249L62.4062 97.4063C59.3398 96.2528 56.4879 94.5945 53.9687 92.5L43.2187 96L35.8437 83.5L44.3437 76C43.7659 72.7652 43.7659 69.4536 44.3437 66.2188L35.8437 58.5L43.2187 46L53.9374 49.625C56.4481 47.5018 59.3154 45.8407 62.4062 44.7188L64.6249 33.5H79.3749L81.5937 44.5938C84.6601 45.7472 87.512 47.4055 90.0312 49.5L100.781 46L108.156 58.5L99.6562 66C100.234 69.2348 100.234 72.5464 99.6562 75.7813L108.156 83.5L100.781 96Z" fill="black"/>
<path d="M72 89.75C68.2916 89.75 64.6665 88.6503 61.5831 86.5901C58.4996 84.5298 56.0964 81.6014 54.6773 78.1753C53.2581 74.7492 52.8868 70.9792 53.6103 67.3421C54.3338 63.7049 56.1195 60.364 58.7418 57.7418C61.364 55.1195 64.7049 53.3338 68.3421 52.6103C71.9792 51.8868 75.7492 52.2581 79.1753 53.6773C82.6014 55.0964 85.5298 57.4996 87.5901 60.5831C89.6503 63.6665 90.75 67.2916 90.75 71C90.7751 73.4693 90.3072 75.9187 89.3738 78.2049C88.4404 80.4911 87.0602 82.568 85.3141 84.3141C83.568 86.0602 81.4911 87.4404 79.2049 88.3738C76.9187 89.3072 74.4693 89.7751 72 89.75ZM72 58.5C70.348 58.4615 68.7053 58.7585 67.1713 59.3731C65.6373 59.9877 64.244 60.907 63.0755 62.0755C61.907 63.244 60.9877 64.6373 60.3731 66.1713C59.7585 67.7053 59.4615 69.348 59.5 71C59.4615 72.6521 59.7585 74.2947 60.3731 75.8287C60.9877 77.3627 61.907 78.756 63.0755 79.9245C64.244 81.093 65.6373 82.0124 67.1713 82.6269C68.7053 83.2415 70.348 83.5385 72 83.5C73.6521 83.5385 75.2947 83.2415 76.8287 82.6269C78.3627 82.0124 79.756 81.093 80.9245 79.9245C82.093 78.756 83.0124 77.3627 83.6269 75.8287C84.2415 74.2947 84.5385 72.6521 84.5 71C84.5385 69.348 84.2415 67.7053 83.6269 66.1713C83.0124 64.6373 82.093 63.244 80.9245 62.0755C79.756 60.907 78.3627 59.9877 76.8287 59.3731C75.2947 58.7585 73.6521 58.4615 72 58.5Z" fill="black"/>
<circle cx="71.5" cy="71.5" r="70" stroke="#6985FF" stroke-width="3"/>
</svg>
