<svg width="109" height="60" viewBox="0 0 109 60" fill="none" xmlns="http://www.w3.org/2000/svg">
<g clip-path="url(#clip0_222_307)">
<path fill-rule="evenodd" clip-rule="evenodd" d="M55.4086 45.6396C58.1865 41.0857 59.7873 35.7304 59.7873 30C59.7873 24.4131 58.2654 19.1829 55.6152 14.7042C52.1715 15.7492 49.1362 18.0558 47.1173 21.2092C48.457 23.8479 49.2127 26.8354 49.2127 30C49.2127 33.2547 48.4135 36.322 47.0014 39.0153C48.9792 42.1992 51.984 44.5449 55.4086 45.6396ZM42.5995 57.1633C38.7435 58.9829 34.437 60 29.8937 60C13.3839 60 0 46.5686 0 30C0 13.4315 13.3839 0 29.8937 0C34.5772 0 39.0091 1.0809 42.9554 3.00768C39.6713 5.1669 36.8044 7.93943 34.507 11.1685C33.0287 10.805 31.4836 10.6122 29.8937 10.6122C19.2241 10.6122 10.5746 19.2924 10.5746 30C10.5746 40.7076 19.2241 49.3878 29.8937 49.3878C31.3959 49.3878 32.8581 49.2155 34.2617 48.8902C36.5172 52.1506 39.3472 54.9604 42.5995 57.1633Z" fill="white"/>
<path fill-rule="evenodd" clip-rule="evenodd" d="M99.6796 48.7318C98.0516 49.1592 96.3364 49.3878 94.5611 49.3878C83.5318 49.3878 74.8354 40.5728 74.8354 30C74.8354 19.4272 83.5318 10.6122 94.5611 10.6122C96.3364 10.6122 98.0516 10.8407 99.6796 11.2681C102.192 8.11743 105.325 5.48633 108.892 3.56106C104.625 1.28904 99.7455 0 94.5611 0C77.8268 0 64.2607 13.4315 64.2607 30C64.2607 46.5686 77.8268 60 94.5611 60C99.7455 60 104.625 58.711 108.892 56.4388C105.325 54.5139 102.192 51.8825 99.6796 48.7318Z" fill="white"/>
<path fill-rule="evenodd" clip-rule="evenodd" d="M61.619 10.6122C63.4699 10.6122 65.255 10.8604 66.9441 11.3234C69.4405 8.2478 72.5324 5.62767 76.0562 3.61736C71.7641 1.31035 66.8461 0 61.619 0C44.8838 0 31.3174 13.4315 31.3174 30C31.3174 46.5686 44.8838 60 61.619 60C66.6972 60 71.4835 58.7633 75.6877 56.5776C72.1899 54.522 69.131 51.8608 66.6749 48.7482C65.0655 49.1653 63.3719 49.3878 61.619 49.3878C50.5884 49.3878 41.892 40.5724 41.892 30C41.892 19.4276 50.5884 10.6122 61.619 10.6122Z" fill="white"/>
</g>
<defs>
<clipPath id="clip0_222_307">
<rect width="109" height="60" fill="white"/>
</clipPath>
</defs>
</svg>
