<svg width="143" height="143" viewBox="0 0 143 143" fill="none" xmlns="http://www.w3.org/2000/svg">
<path d="M59.95 69.9917L69.4667 60.45L60.9125 51.8667L56.0833 56.6917L53.1333 53.7417L57.9375 48.9167L49.8042 40.7833L40.2625 50.325L59.95 69.9917ZM92.5917 102.658L102.133 93.1167L94.0042 84.9833L89.1792 89.7833L86.2333 86.8333L91.0292 82.0083L82.5292 73.5333L73.0083 83.05L92.5917 102.658ZM51.8042 104.333H38.6667V91.1917L56.975 72.8833L34.5 50.3292L49.8042 35.025L72.4667 57.6042L91.0792 38.9667C91.5375 38.5055 92.0208 38.1736 92.5292 37.9708C93.0375 37.768 93.5792 37.6667 94.1542 37.6667C94.7292 37.6667 95.2708 37.768 95.7792 37.9708C96.2875 38.1736 96.7722 38.5055 97.2333 38.9667L104.033 46.0333C104.494 46.4917 104.814 46.975 104.992 47.4833C105.169 47.9917 105.257 48.5333 105.254 49.1083C105.251 49.6833 105.163 50.2083 104.988 50.6833C104.813 51.1583 104.496 51.625 104.037 52.0833L85.5792 70.6417L107.979 93.1958L92.6667 108.5L70.1125 86.025L51.8042 104.333ZM42.8333 100.167H50.0292L90.9458 59.275L83.7208 52.0583L42.8333 92.9708V100.167ZM87.3833 55.6417L83.725 52.0583L90.9417 59.2792L87.3833 55.6417Z" fill="black"/>
<circle cx="71.5" cy="71.5" r="70" stroke="#6985FF" stroke-width="3"/>
</svg>
