<svg width="143" height="143" viewBox="0 0 143 143" fill="none" xmlns="http://www.w3.org/2000/svg">
<circle cx="71.5" cy="71.5" r="70" stroke="#6985FF" stroke-width="3"/>
<path d="M89.1875 52.4688V47.7812C89.1875 47.3516 88.8359 47 88.4062 47H50.9062C50.4766 47 50.125 47.3516 50.125 47.7812V52.4688C50.125 52.8984 50.4766 53.25 50.9062 53.25H88.4062C88.8359 53.25 89.1875 52.8984 89.1875 52.4688ZM50.9062 61.0625C50.4766 61.0625 50.125 61.4141 50.125 61.8438V66.5312C50.125 66.9609 50.4766 67.3125 50.9062 67.3125H68.875C69.3047 67.3125 69.6562 66.9609 69.6562 66.5312V61.8438C69.6562 61.4141 69.3047 61.0625 68.875 61.0625H50.9062ZM87.625 72.3906C75.9746 72.3906 66.5312 81.834 66.5312 93.4844C66.5312 105.135 75.9746 114.578 87.625 114.578C99.2754 114.578 108.719 105.135 108.719 93.4844C108.719 81.834 99.2754 72.3906 87.625 72.3906ZM98.123 103.982C95.3203 106.785 91.5898 108.328 87.625 108.328C83.6602 108.328 79.9297 106.785 77.127 103.982C74.3242 101.18 72.7812 97.4492 72.7812 93.4844C72.7812 89.5195 74.3242 85.7891 77.127 82.9863C79.9297 80.1836 83.6602 78.6406 87.625 78.6406C91.5898 78.6406 95.3203 80.1836 98.123 82.9863C100.926 85.7891 102.469 89.5195 102.469 93.4844C102.469 97.4492 100.926 101.18 98.123 103.982ZM96.3164 86.0625H91.9902C91.7363 86.0625 91.502 86.1797 91.3555 86.3848L85.1543 94.959L82.8984 91.8438C82.8262 91.7431 82.7308 91.6613 82.6203 91.6052C82.5099 91.5492 82.3876 91.5204 82.2637 91.5215H77.957C77.3223 91.5215 76.9512 92.2441 77.3223 92.7617L84.5293 102.732C84.8418 103.162 85.4766 103.162 85.7891 102.732L96.9414 87.3027C97.3223 86.7852 96.9512 86.0625 96.3164 86.0625ZM64.9688 105.203H42.3125V36.4531H97V70.0469C97 70.4766 97.3516 70.8281 97.7812 70.8281H103.25C103.68 70.8281 104.031 70.4766 104.031 70.0469V32.5469C104.031 30.8184 102.635 29.4219 100.906 29.4219H38.4062C36.6777 29.4219 35.2812 30.8184 35.2812 32.5469V109.109C35.2812 110.838 36.6777 112.234 38.4062 112.234H64.9688C65.3984 112.234 65.75 111.883 65.75 111.453V105.984C65.75 105.555 65.3984 105.203 64.9688 105.203Z" fill="black"/>
</svg>
