<svg width="143" height="143" viewBox="0 0 143 143" fill="none" xmlns="http://www.w3.org/2000/svg">
<path d="M87.6251 31.375C73.7813 31.375 62.6251 42.5312 62.6251 56.375C62.6251 57.1094 62.7407 58.1031 62.822 59.0125L36.0626 85.7688C34.6009 87.221 33.4409 88.9479 32.6493 90.8503C31.8577 92.7526 31.4502 94.7927 31.4502 96.8531C31.4502 98.9136 31.8577 100.954 32.6493 102.856C33.4409 104.758 34.6009 106.485 36.0626 107.938C37.5148 109.399 39.2418 110.559 41.1441 111.351C43.0464 112.142 45.0865 112.55 47.147 112.55C49.2074 112.55 51.2475 112.142 53.1498 111.351C55.0522 110.559 56.7791 109.399 58.2313 107.938L84.9876 81.1781C85.8938 81.2594 86.8938 81.375 87.6251 81.375C101.469 81.375 112.625 70.2187 112.625 56.375C112.641 52.3469 111.632 48.3809 109.694 44.85L107.741 41.2375L104.813 44.1687L91.3345 57.5437L86.4532 52.6625L99.8282 39.1875L102.766 36.2562L99.1501 34.3031C95.6189 32.3656 91.6529 31.358 87.6251 31.375ZM87.6251 37.625C89.1438 37.625 90.2751 38.2812 91.6251 38.6031L79.8126 50.4156L77.5626 52.6656L79.8126 54.8125L89.1876 64.1875L91.3376 66.4375L93.5813 64.1875L105.4 52.375C105.722 53.725 106.375 54.8562 106.375 56.375C106.375 66.9062 98.1563 75.125 87.6251 75.125C86.3751 75.125 85.3751 75.125 84.5939 74.9281L82.9376 74.4406L81.6688 75.7125L53.8345 103.547C49.9907 107.391 44.3032 107.391 40.4595 103.547L40.3595 103.447C36.6095 99.6031 36.6407 93.9781 40.4532 90.1656L68.2876 62.3344L69.5595 61.0656L69.0657 59.4094C68.8782 58.6281 68.872 57.6281 68.872 56.3781C68.872 45.8469 77.0907 37.6281 87.622 37.6281L87.6251 37.625Z" fill="black"/>
<circle cx="71.5" cy="71.5" r="70" stroke="#6985FF" stroke-width="3"/>
</svg>
